{"title":"Steel (1979) VHSRip - kaka","uid":8251126,"size":1026887805,"categoryP":"video","categoryS":"movies","magnet":"?xt=urn:btih:3128fc5eecf0a1a6e1b8b9422b862a838d9ef3ef&amp;dn=Steel+%281979%29+VHSRip+-+kaka&amp;tr=udp%3A%2F%2Ftracker.openbittorrent.com%3A80&amp;tr=udp%3A%2F%2Fopen.demonii.com%3A1337&amp;tr=udp%3A%2F%2Ftracker.coppersurfer.tk%3A6969&amp;tr=udp%3A%2F%2Fexodus.desync.com%3A6969","seeders":0,"leechers":2,"uploader":"sceneline","files":4,"time":1363171281,"description":"- &lt;a href=&quot;\nhttp://www.Speed.Cd&quot; rel=&quot;nofollow&quot; target=&quot;_NEW&quot;&gt;\nhttp://www.Speed.Cd&lt;/a&gt;\n &lt;a href=&quot;\nhttp://www.Speed.Cd&quot; rel=&quot;nofollow&quot; target=&quot;_NEW&quot;&gt;\nhttp://www.Speed.Cd&lt;/a&gt;       the fast  and The Hottest Private Tracker on the net\n\nPlease Seed back to make the speed Faster!!\n ............ NFO .............\n-General\nComplete name                            : Steel (1979) VHSRip - kaka.avi\nFormat                                   : AVI\nFormat/Info                              : Audio Video Interleave\nFile size                                : 979 MiB\nDuration                                 : 1h 44mn\nOverall bit rate                         : 1 308 Kbps\nWriting application                      : transcode-1.1.5\n\nVideo\nID                                       : 0\nFormat                                   : MPEG-4 Visual\nFormat profile                           : Simple@L3\nFormat settings, BVOP                    : No\nFormat settings, QPel                    : No\nFormat settings, GMC                     : No warppoints\nFormat settings, Matrix                  : Default (H.263)\nCodec ID                                 : DX50\nCodec ID/Hint                            : DivX 5\nDuration                                 : 1h 44mn\nBit rate                                 : 1 040 Kbps\nWidth                                    : 640 pixels\nHeight                                   : 480 pixels\nDisplay aspect ratio                     : 4:3\nFrame rate                               : 29.970 fps\nColor space                              : YUV\nChroma subsampling                       : 4:2:0\nBit depth                                : 8 bits\nScan type                                : Progressive\nCompression mode                         : Lossy\nBits/(Pixel*Frame)                       : 0.113\nStream size                              : 779 MiB (80%)\nWriting library                          : XviD 1.2.1 (UTC 2008-12-04)\n\nAudio\nID                                       : 1\nFormat                                   : AC-3\nFormat/Info                              : Audio Coding 3\nMode extension                           : CM (complete main)\nCodec ID                                 : 2000\nDuration                                 : 1h 44mn\nBit rate mode                            : Constant\nBit rate                                 : 256 Kbps\nChannel(s)                               : 2 channels\nChannel positions                        : Front: L R\nSampling rate                            : 48.0 KHz\nBit depth                                : 16 bits\nCompression mode                         : Lossy\nStream size                              : 192 MiB (20%)\nAlignment                                : Aligned on interleaves\nInterleave, duration                     : 32 ms (0.96 video frame)\nInterleave, preload duration             : 64 ms","torrent":{"xt":"urn:btih:3128fc5eecf0a1a6e1b8b9422b862a838d9ef3ef","amp;dn":"Steel+%281979%29+VHSRip+-+kaka","amp;tr":["udp%3A%2F%2Ftracker.openbittorrent.com%3A80","udp%3A%2F%2Fopen.demonii.com%3A1337","udp%3A%2F%2Ftracker.coppersurfer.tk%3A6969","udp%3A%2F%2Fexodus.desync.com%3A6969"],"infoHash":"3128fc5eecf0a1a6e1b8b9422b862a838d9ef3ef","infoHashBuffer":{"type":"Buffer","data":[49,40,252,94,236,240,161,166,225,184,185,66,43,134,42,131,141,158,243,239]},"announce":[],"urlList":[]}}